<!DOCTYPE svg PUBLIC "-//W3C//DTD SVG 20010904//EN" "http://www.w3.org/TR/2001/REC-SVG-20010904/DTD/svg10.dtd">
<svg version="1.0" xmlns="http://www.w3.org/2000/svg" width="1200px" height="328px" viewBox="0 0 12000 3280" preserveAspectRatio="xMidYMid meet">
<g id="layer101" fill="#ffffff" stroke="none">
<path d="M5720 1755 l0 -365 60 0 60 0 0 32 0 31 23 -20 c77 -71 219 -71 295 0 92 85 106 280 29 394 -67 98 -210 129 -298 64 l-28 -21 -3 122 -3 123 -67 3 -68 3 0 -366z m318 35 c80 -49 84 -208 8 -272 -33 -28 -107 -24 -145 8 -75 63 -61 227 23 268 42 21 75 20 114 -4z"/>
<path d="M11188 2103 c-27 -9 -48 -21 -48 -27 0 -6 7 -30 17 -54 14 -36 20 -43 37 -38 114 33 188 30 232 -8 21 -17 28 -34 32 -75 l5 -52 -38 25 c-47 33 -138 36 -201 7 -137 -62 -180 -292 -80 -424 59 -77 196 -102 284 -52 40 23 42 23 42 4 0 -17 7 -19 65 -19 l65 0 0 263 c0 144 -5 278 -10 298 -16 56 -50 100 -104 134 -46 28 -57 30 -150 32 -71 1 -115 -3 -148 -14z m232 -342 c37 -27 55 -101 41 -167 -7 -28 -20 -59 -30 -68 -45 -41 -137 -39 -175 3 -37 40 -36 172 2 214 42 48 111 56 162 18z"/>
<path d="M4420 1921 c-133 -26 -220 -133 -220 -269 0 -76 14 -123 53 -174 46 -61 122 -98 204 -98 146 0 232 86 233 233 l0 67 -176 0 -176 0 7 28 c16 64 99 111 174 97 20 -4 55 -17 78 -30 l41 -23 26 49 27 48 -38 25 c-39 26 -141 57 -178 55 -11 -1 -36 -4 -55 -8z m135 -363 c-11 -36 -45 -67 -80 -74 -49 -9 -111 29 -128 79 -6 15 3 17 104 17 110 0 110 0 104 -22z"/>
<path d="M6523 1920 c-217 -45 -297 -318 -138 -473 54 -52 108 -70 197 -65 134 7 204 80 215 223 l6 75 -182 0 c-99 0 -181 2 -181 5 0 3 6 21 14 39 34 82 145 107 240 53 27 -15 50 -26 51 -25 9 11 45 89 45 98 0 17 -119 67 -175 73 -27 3 -69 2 -92 -3z m137 -359 c0 -24 -42 -69 -74 -77 -35 -8 -92 13 -116 43 -38 48 -30 53 85 53 96 0 105 -2 105 -19z"/>
<path d="M7020 1923 c-68 -11 -160 -56 -160 -77 0 -5 12 -28 27 -51 l26 -42 45 25 c49 28 132 36 153 15 6 -6 9 -22 6 -36 -5 -18 -26 -32 -92 -62 -95 -42 -140 -84 -150 -139 -8 -43 8 -96 38 -124 61 -58 193 -70 285 -27 28 13 52 26 52 29 0 14 -45 96 -52 96 -5 0 -23 -7 -40 -16 -43 -22 -113 -23 -135 -1 -24 24 -9 46 48 72 102 46 145 73 166 104 50 74 14 179 -72 215 -36 16 -110 25 -145 19z"/>
<path d="M8950 1921 c-145 -30 -240 -152 -227 -292 10 -110 75 -195 179 -234 71 -26 190 -18 251 18 154 91 188 286 72 415 -68 75 -180 113 -275 93z m114 -125 c74 -31 111 -123 82 -200 -21 -54 -50 -81 -101 -95 -98 -27 -185 46 -185 155 0 111 103 182 204 140z"/>
<path d="M9493 1920 c-47 -10 -114 -42 -132 -64 -10 -12 -7 -23 18 -60 l31 -45 35 24 c70 47 165 41 165 -10 0 -23 -10 -31 -82 -64 -143 -65 -183 -118 -158 -206 22 -78 86 -115 197 -115 51 0 81 6 121 25 28 13 52 26 52 29 0 3 -10 26 -22 51 -21 43 -40 56 -52 36 -4 -5 -29 -14 -57 -20 -60 -13 -104 1 -104 34 0 15 24 32 100 70 118 59 145 90 145 166 0 40 -5 55 -31 84 -50 57 -138 82 -226 65z"/>
<path d="M7508 1904 c-57 -17 -104 -62 -118 -112 -5 -20 -10 -92 -10 -159 l0 -122 -32 -3 c-32 -3 -33 -4 -36 -55 l-3 -53 35 0 36 0 0 -75 0 -76 68 3 67 3 3 73 3 72 54 0 55 0 0 55 0 55 -55 0 -55 0 0 114 c0 63 3 122 6 131 8 20 56 45 89 45 24 0 25 2 25 60 l0 60 -42 -1 c-24 0 -64 -7 -90 -15z"/>
<path d="M10000 1905 c-56 -18 -109 -70 -121 -121 -4 -22 -9 -92 -9 -156 l0 -117 -32 -3 c-32 -3 -33 -4 -36 -55 l-3 -53 35 0 35 0 3 -72 3 -73 68 -3 67 -3 0 76 0 75 55 0 55 0 0 55 0 55 -55 0 -55 0 0 118 c0 112 1 120 24 141 13 12 40 24 60 28 l36 6 0 58 0 59 -42 -1 c-24 0 -63 -7 -88 -14z"/>
<path d="M3870 1610 l0 -300 -115 0 -115 0 0 -60 0 -60 305 0 306 0 -3 58 -3 57 -117 3 -118 3 0 299 0 300 -70 0 -70 0 0 -300z"/>
<path d="M4790 1650 l0 -260 65 0 65 0 0 35 c0 42 8 44 41 9 36 -39 72 -54 131 -54 59 0 106 23 134 65 l16 25 40 -35 c49 -45 76 -55 141 -55 71 0 116 25 145 80 21 42 22 56 22 247 l0 203 -64 0 -64 0 -4 -186 c-3 -181 -4 -186 -27 -205 -31 -25 -61 -24 -102 4 -54 36 -68 88 -68 250 l-1 137 -64 0 -64 0 -4 -186 c-3 -181 -4 -186 -27 -205 -30 -24 -58 -24 -98 1 -58 35 -67 67 -71 238 l-4 152 -69 0 -69 0 0 -260z"/>
<path d="M8010 1550 l0 -360 65 0 65 0 0 150 0 150 160 0 160 0 0 -150 0 -150 70 0 70 0 0 360 0 360 -70 0 -70 0 0 -150 0 -150 -160 0 -160 0 0 150 0 150 -65 0 -65 0 0 -360z"/>
<path d="M10230 1650 l0 -260 70 0 70 0 0 260 0 260 -70 0 -70 0 0 -260z"/>
<path d="M10500 1650 l0 -260 65 0 65 0 0 41 0 42 20 -26 c32 -40 98 -67 166 -67 78 0 122 23 152 80 21 42 22 56 22 247 l0 203 -65 0 -65 0 0 -180 0 -181 -26 -26 c-22 -22 -32 -25 -66 -20 -51 7 -88 33 -110 78 -15 28 -18 61 -18 182 l0 147 -70 0 -70 0 0 -260z"/>
<path d="M10230 1250 l0 -60 70 0 71 0 -3 58 -3 57 -67 3 -68 3 0 -61z"/>
</g>
<g id="layer102" fill="#0098ef" stroke="none">
<path d="M1470 3274 c-210 -25 -447 -101 -624 -200 -369 -208 -655 -564 -772 -962 -87 -298 -87 -646 0 -944 78 -265 237 -523 442 -717 237 -224 490 -354 834 -427 131 -28 478 -26 616 4 346 75 622 227 860 475 151 156 248 302 331 497 176 414 176 866 0 1280 -83 195 -180 341 -331 497 -232 242 -498 391 -831 469 -93 21 -140 26 -300 29 -104 2 -206 1 -225 -1z"/>
</g>
<g id="layer103" fill="#f5fbfe" stroke="none">
<path d="M526 2194 c-21 -21 -20 -40 4 -64 19 -19 33 -20 366 -20 l346 0 -28 -32 c-33 -40 -74 -125 -74 -155 l0 -23 -188 0 c-154 0 -192 -3 -210 -16 -24 -17 -29 -56 -9 -73 9 -6 85 -12 206 -13 l193 -3 18 -57 c10 -32 34 -80 54 -108 l36 -50 -143 0 c-98 0 -147 -4 -155 -12 -19 -19 -15 -66 7 -78 12 -6 124 -10 294 -10 l274 0 7 -57 c16 -136 119 -273 253 -336 118 -55 287 -48 393 16 124 75 220 224 220 342 0 31 1 32 70 42 90 14 153 45 213 105 92 92 128 229 93 352 -22 73 -51 119 -110 174 -69 64 -123 84 -237 90 -91 4 -97 3 -112 -18 -33 -48 4 -80 91 -80 89 0 136 -16 192 -67 67 -60 94 -126 88 -214 -12 -158 -124 -249 -308 -249 l-78 0 -4 -97 c-4 -82 -9 -107 -31 -151 -110 -212 -385 -250 -548 -75 -62 66 -89 140 -89 242 l0 79 -97 4 c-85 3 -105 8 -152 33 -194 106 -183 383 19 474 41 19 65 21 288 21 229 0 243 1 262 20 24 24 24 29 4 58 l-15 22 -694 0 c-617 0 -695 -2 -709 -16z"/>
</g>


</svg>
