<svg xmlns="http://www.w3.org/2000/svg" xmlns:xlink="http://www.w3.org/1999/xlink" xml:space="preserve" width="4481" height="1346" version="1.1" style="shape-rendering: geometricprecision; text-rendering: geometricprecision; fill-rule: evenodd; clip-rule: evenodd;"><rect id="backgroundrect" width="100%" height="100%" x="0" y="0" fill="none" stroke="none" class="" style=""/>
 <defs>
  <style type="text/css">
   <![CDATA[
    .fil0 {fill:#fff;fill-rule:nonzero}
    .fil1 {fill:#379FD9;fill-rule:nonzero}
   ]]>
  </style>
 </defs>
 
<g class="currentLayer" style=""><title>Layer 1</title><g id="__x0023_Layer_x0020_1" class="">
  <metadata id="CorelCorpID_0Corel-Layer" transform="translate(-590.3333740234375,-178.3333740234375) translate(53.33333206176758,-1926.6666259765625) "/>
  <g id="_401224264">
   <path class="fil0" d="M1738.99995803833,395 l220,0 c32,0 62,4 88,13 c26,9 49,21 67,38 c18,16 32,36 42,59 c10,23 15,48 15,77 l0,2 c0,31 -6,59 -18,83 c-12,24 -28,44 -48,59 c-20,16 -44,28 -71,36 c-27,8 -56,12 -87,12 l-111,0 l0,180 l-97,0 l0,-559 zm212,291 l0,0 c37,0 67,-9 89,-28 c22,-19 32,-43 32,-72 l0,-2 c0,-33 -11,-58 -33,-75 c-22,-17 -51,-25 -88,-25 l-115,0 l0,202 l115,0 z" id="svg_1"/>
   <path class="fil0" d="M2669.99995803833,391 l91,0 l246,563 l-104,0 l-57,-135 l-264,0 l-57,135 l-101,0 l246,-563 zm140,341 l0,0 l-97,-223 l-96,223 l192,0 z" id="svg_2"/>
   <polygon class="fil0" points="3438.9998779296875,486 3261.9998779296875,486 3261.9998779296875,395 3715.0001220703125,395 3715.0001220703125,486 3538.0001220703125,486 3538.0001220703125,954 3438.9998779296875,954 " id="svg_3"/>
   <polygon class="fil0" points="4018.0001220703125,395 4116.0001220703125,395 4116.0001220703125,628 4384.0001220703125,628 4384.0001220703125,395 4481.0001220703125,395 4481.0001220703125,954 4384.0001220703125,954 4384.0001220703125,719 4116.0001220703125,719 4116.0001220703125,954 4018.0001220703125,954 " id="svg_4"/>
  </g>
  <path class="fil1" d="M672.9999580383301,0 c-371,0 -673,302 -673,673 c0,155 53,298 142,412 c1,2 3,4 4,6 c9,9 21,15 35,15 c25,0 46,-20 47,-45 c0,-1 0,-1 0,-2 c0,-1 0,-1 0,-2 l0,-363 c0,-7 -1,-14 -1,-21 c0,-246 200,-446 446,-446 c246,0 445,200 445,446 c0,246 -200,446 -445,446 c-54,0 -105,-10 -152,-27 c-2,-1 -4,-1 -5,-2 c-4,-1 -9,-2 -14,-2 c-26,0 -47,21 -47,47 l0,140 c0,21 13,38 32,44 c2,1 4,1 5,2 c58,16 118,25 181,25 c371,0 672,-302 672,-672 c0,-371 -302,-673 -672,-673 z" id="svg_5"/>
  <path class="fil1" d="M800.9999580383301,708 c-62,0 -113,-51 -113,-113 c0,-56 41,-102 94,-111 c-32,-19 -69,-29 -109,-29 c-121,0 -219,98 -219,219 c0,121 98,219 219,219 c121,0 219,-98 219,-219 c0,-3 0,-7 0,-10 c-21,27 -53,45 -90,45 z" id="svg_6"/>
 </g></g></svg>
